<mxfile host="app.diagrams.net" modified="2023-08-01T06:14:53.303Z" agent="Mozilla/5.0 (Windows NT 10.0; Win64; x64) AppleWebKit/537.36 (KHTML, like Gecko) Chrome/109.0.0.0 Safari/537.36" etag="_zgjy7GMbWeUbDtU49Wt" version="21.6.6" type="google">
  <diagram name="ページ1" id="Ii1aGD_-wHBXBE_sITFh">
    <mxGraphModel grid="1" page="1" gridSize="10" guides="1" tooltips="1" connect="1" arrows="1" fold="1" pageScale="1" pageWidth="1169" pageHeight="827" math="0" shadow="0">
      <root>
        <mxCell id="0" />
        <mxCell id="1" parent="0" />
        <mxCell id="Lbrs5oefOB9QgeZK32Kv-1" value="Command Buffer" style="rounded=1;whiteSpace=wrap;html=1;fontStyle=1;verticalAlign=top;fontSize=18;dashed=1;" vertex="1" parent="1">
          <mxGeometry x="40" width="1000" height="320" as="geometry" />
        </mxCell>
        <mxCell id="Lbrs5oefOB9QgeZK32Kv-2" value="" style="group" vertex="1" connectable="0" parent="1">
          <mxGeometry x="75" y="175" width="370" height="65" as="geometry" />
        </mxCell>
        <mxCell id="Lbrs5oefOB9QgeZK32Kv-3" value="" style="shape=curlyBracket;whiteSpace=wrap;html=1;rounded=1;flipH=1;labelPosition=right;verticalLabelPosition=middle;align=left;verticalAlign=middle;rotation=90;size=0.5;" vertex="1" parent="Lbrs5oefOB9QgeZK32Kv-2">
          <mxGeometry x="175" y="-175" width="20" height="370" as="geometry" />
        </mxCell>
        <mxCell id="Lbrs5oefOB9QgeZK32Kv-4" value="Render Pass #1" style="text;html=1;align=center;verticalAlign=middle;resizable=0;points=[];autosize=1;strokeColor=none;fillColor=none;fontSize=18;" vertex="1" parent="Lbrs5oefOB9QgeZK32Kv-2">
          <mxGeometry x="110" y="25" width="150" height="40" as="geometry" />
        </mxCell>
        <mxCell id="Lbrs5oefOB9QgeZK32Kv-5" value="" style="group" vertex="1" connectable="0" parent="1">
          <mxGeometry x="360" y="200" width="370" height="65" as="geometry" />
        </mxCell>
        <mxCell id="Lbrs5oefOB9QgeZK32Kv-6" value="" style="shape=curlyBracket;whiteSpace=wrap;html=1;rounded=1;flipH=1;labelPosition=right;verticalLabelPosition=middle;align=left;verticalAlign=middle;rotation=90;size=0.5;" vertex="1" parent="Lbrs5oefOB9QgeZK32Kv-5">
          <mxGeometry x="175" y="-175" width="20" height="370" as="geometry" />
        </mxCell>
        <mxCell id="Lbrs5oefOB9QgeZK32Kv-7" value="Render Pass #2" style="text;html=1;align=center;verticalAlign=middle;resizable=0;points=[];autosize=1;strokeColor=none;fillColor=none;fontSize=18;" vertex="1" parent="Lbrs5oefOB9QgeZK32Kv-5">
          <mxGeometry x="110" y="25" width="150" height="40" as="geometry" />
        </mxCell>
        <mxCell id="Lbrs5oefOB9QgeZK32Kv-8" value="" style="group" vertex="1" connectable="0" parent="1">
          <mxGeometry x="640" y="230" width="370" height="65" as="geometry" />
        </mxCell>
        <mxCell id="Lbrs5oefOB9QgeZK32Kv-9" value="" style="shape=curlyBracket;whiteSpace=wrap;html=1;rounded=1;flipH=1;labelPosition=right;verticalLabelPosition=middle;align=left;verticalAlign=middle;rotation=90;size=0.5;" vertex="1" parent="Lbrs5oefOB9QgeZK32Kv-8">
          <mxGeometry x="175" y="-175" width="20" height="370" as="geometry" />
        </mxCell>
        <mxCell id="Lbrs5oefOB9QgeZK32Kv-10" value="Render Pass #3" style="text;html=1;align=center;verticalAlign=middle;resizable=0;points=[];autosize=1;strokeColor=none;fillColor=none;fontSize=18;" vertex="1" parent="Lbrs5oefOB9QgeZK32Kv-8">
          <mxGeometry x="110" y="25" width="150" height="40" as="geometry" />
        </mxCell>
        <mxCell id="Lbrs5oefOB9QgeZK32Kv-11" value="" style="rounded=0;whiteSpace=wrap;html=1;fillColor=none;strokeColor=none;" vertex="1" parent="1">
          <mxGeometry width="40" height="40" as="geometry" />
        </mxCell>
        <mxCell id="Lbrs5oefOB9QgeZK32Kv-12" value="" style="rounded=0;whiteSpace=wrap;html=1;fillColor=none;strokeColor=none;" vertex="1" parent="1">
          <mxGeometry x="1600" width="40" height="40" as="geometry" />
        </mxCell>
        <mxCell id="Lbrs5oefOB9QgeZK32Kv-13" style="edgeStyle=orthogonalEdgeStyle;shape=connector;rounded=0;orthogonalLoop=1;jettySize=auto;html=1;labelBackgroundColor=default;strokeColor=default;strokeWidth=2;fontFamily=Helvetica;fontSize=11;fontColor=default;endArrow=classic;" edge="1" parent="1" source="Lbrs5oefOB9QgeZK32Kv-14" target="Lbrs5oefOB9QgeZK32Kv-18">
          <mxGeometry relative="1" as="geometry" />
        </mxCell>
        <mxCell id="Lbrs5oefOB9QgeZK32Kv-14" value="Metal Performance Shader" style="rounded=1;whiteSpace=wrap;html=1;fillColor=#1ba1e2;strokeColor=#006EAF;fontSize=18;fontColor=#ffffff;" vertex="1" parent="1">
          <mxGeometry x="195" y="75" width="120" height="80" as="geometry" />
        </mxCell>
        <mxCell id="Lbrs5oefOB9QgeZK32Kv-15" style="edgeStyle=orthogonalEdgeStyle;rounded=0;orthogonalLoop=1;jettySize=auto;html=1;entryX=0;entryY=0.5;entryDx=0;entryDy=0;strokeWidth=2;" edge="1" parent="1" source="Lbrs5oefOB9QgeZK32Kv-16" target="Lbrs5oefOB9QgeZK32Kv-14">
          <mxGeometry relative="1" as="geometry" />
        </mxCell>
        <mxCell id="Lbrs5oefOB9QgeZK32Kv-16" value="" style="sketch=0;outlineConnect=0;fillColor=#000000;strokeColor=#9673a6;dashed=0;verticalLabelPosition=bottom;verticalAlign=top;align=center;html=1;fontSize=12;fontStyle=0;aspect=fixed;pointerEvents=1;shape=mxgraph.aws4.container_registry_image;" vertex="1" parent="1">
          <mxGeometry x="75" y="75" width="80" height="80" as="geometry" />
        </mxCell>
        <mxCell id="Lbrs5oefOB9QgeZK32Kv-17" style="edgeStyle=orthogonalEdgeStyle;shape=connector;rounded=0;orthogonalLoop=1;jettySize=auto;html=1;entryX=-0.027;entryY=0.498;entryDx=0;entryDy=0;entryPerimeter=0;labelBackgroundColor=default;strokeColor=default;strokeWidth=2;fontFamily=Helvetica;fontSize=11;fontColor=default;endArrow=classic;" edge="1" parent="1" source="Lbrs5oefOB9QgeZK32Kv-18" target="Lbrs5oefOB9QgeZK32Kv-20">
          <mxGeometry relative="1" as="geometry" />
        </mxCell>
        <mxCell id="Lbrs5oefOB9QgeZK32Kv-18" value="" style="sketch=0;outlineConnect=0;fillColor=#60a917;strokeColor=#2D7600;dashed=0;verticalLabelPosition=bottom;verticalAlign=top;align=center;html=1;fontSize=12;fontStyle=0;aspect=fixed;pointerEvents=1;shape=mxgraph.aws4.container_registry_image;fontColor=#ffffff;" vertex="1" parent="1">
          <mxGeometry x="355" y="75" width="80" height="80" as="geometry" />
        </mxCell>
        <mxCell id="Lbrs5oefOB9QgeZK32Kv-19" style="edgeStyle=orthogonalEdgeStyle;shape=connector;rounded=0;orthogonalLoop=1;jettySize=auto;html=1;labelBackgroundColor=default;strokeColor=default;strokeWidth=2;fontFamily=Helvetica;fontSize=11;fontColor=default;endArrow=classic;" edge="1" parent="1" source="Lbrs5oefOB9QgeZK32Kv-20" target="Lbrs5oefOB9QgeZK32Kv-22">
          <mxGeometry relative="1" as="geometry" />
        </mxCell>
        <mxCell id="Lbrs5oefOB9QgeZK32Kv-20" value="Metal&lt;br&gt;Shader" style="rounded=1;whiteSpace=wrap;html=1;fontSize=18;fillColor=#dae8fc;strokeColor=#6c8ebf;" vertex="1" parent="1">
          <mxGeometry x="475" y="75" width="120" height="80" as="geometry" />
        </mxCell>
        <mxCell id="Lbrs5oefOB9QgeZK32Kv-21" style="edgeStyle=orthogonalEdgeStyle;rounded=0;orthogonalLoop=1;jettySize=auto;html=1;entryX=0;entryY=0.5;entryDx=0;entryDy=0;strokeWidth=2;" edge="1" parent="1" source="Lbrs5oefOB9QgeZK32Kv-22" target="Lbrs5oefOB9QgeZK32Kv-27">
          <mxGeometry relative="1" as="geometry" />
        </mxCell>
        <mxCell id="Lbrs5oefOB9QgeZK32Kv-22" value="" style="sketch=0;outlineConnect=0;fillColor=#60a917;strokeColor=#2D7600;dashed=0;verticalLabelPosition=bottom;verticalAlign=top;align=center;html=1;fontSize=12;fontStyle=0;aspect=fixed;pointerEvents=1;shape=mxgraph.aws4.container_registry_image;fontColor=#ffffff;" vertex="1" parent="1">
          <mxGeometry x="635" y="75" width="80" height="80" as="geometry" />
        </mxCell>
        <mxCell id="Lbrs5oefOB9QgeZK32Kv-23" value="Texture" style="text;html=1;align=center;verticalAlign=middle;resizable=0;points=[];autosize=1;strokeColor=none;fillColor=none;fontSize=11;fontFamily=Helvetica;fontColor=default;" vertex="1" parent="1">
          <mxGeometry x="85" y="45" width="60" height="30" as="geometry" />
        </mxCell>
        <mxCell id="Lbrs5oefOB9QgeZK32Kv-24" value="Mid-Texture&lt;br style=&quot;border-color: var(--border-color);&quot;&gt;#2" style="text;html=1;align=center;verticalAlign=middle;resizable=0;points=[];autosize=1;strokeColor=none;fillColor=none;fontSize=11;fontFamily=Helvetica;fontColor=default;" vertex="1" parent="1">
          <mxGeometry x="635" y="40" width="80" height="40" as="geometry" />
        </mxCell>
        <mxCell id="Lbrs5oefOB9QgeZK32Kv-25" value="Mid-Texture&lt;br&gt;#1" style="text;html=1;align=center;verticalAlign=middle;resizable=0;points=[];autosize=1;strokeColor=none;fillColor=none;fontSize=11;fontFamily=Helvetica;fontColor=default;" vertex="1" parent="1">
          <mxGeometry x="355" y="40" width="80" height="40" as="geometry" />
        </mxCell>
        <mxCell id="Lbrs5oefOB9QgeZK32Kv-26" style="edgeStyle=orthogonalEdgeStyle;shape=connector;rounded=0;orthogonalLoop=1;jettySize=auto;html=1;labelBackgroundColor=default;strokeColor=default;strokeWidth=2;fontFamily=Helvetica;fontSize=11;fontColor=default;endArrow=classic;" edge="1" parent="1" source="Lbrs5oefOB9QgeZK32Kv-27" target="Lbrs5oefOB9QgeZK32Kv-28">
          <mxGeometry relative="1" as="geometry" />
        </mxCell>
        <mxCell id="Lbrs5oefOB9QgeZK32Kv-27" value="Metal Performance Shader" style="rounded=1;whiteSpace=wrap;html=1;fontSize=18;fillColor=#1ba1e2;strokeColor=#006EAF;fontColor=#ffffff;" vertex="1" parent="1">
          <mxGeometry x="755" y="75" width="120" height="80" as="geometry" />
        </mxCell>
        <mxCell id="Lbrs5oefOB9QgeZK32Kv-28" value="" style="sketch=0;outlineConnect=0;fillColor=#0050ef;strokeColor=#001DBC;dashed=0;verticalLabelPosition=bottom;verticalAlign=top;align=center;html=1;fontSize=12;fontStyle=0;aspect=fixed;pointerEvents=1;shape=mxgraph.aws4.container_registry_image;fontColor=#ffffff;" vertex="1" parent="1">
          <mxGeometry x="915" y="75" width="80" height="80" as="geometry" />
        </mxCell>
        <mxCell id="Lbrs5oefOB9QgeZK32Kv-29" value="Drawable.&lt;br&gt;Texture" style="text;html=1;align=center;verticalAlign=middle;resizable=0;points=[];autosize=1;strokeColor=none;fillColor=none;fontSize=11;fontFamily=Helvetica;fontColor=default;" vertex="1" parent="1">
          <mxGeometry x="920" y="40" width="70" height="40" as="geometry" />
        </mxCell>
      </root>
    </mxGraphModel>
  </diagram>
</mxfile>
